<svg xmlns="http://www.w3.org/2000/svg" style="isolation:isolate" viewBox="0 0 230 60" width="230" height="60"><path d="M139.44 17.088l-10.035 20.72q-.173.35-.55.367-.306.013-.485-.176-.18-.19-.19-.463-.003-.034-.015-.71-.012-.675-.06-1.82-.064-1.45-.126-3.09-.063-1.64-.187-3.327-.125-1.688-.367-3.354-.243-1.666-.668-3.18-.424-1.51-1.062-2.8-.637-1.29-1.583-2.216-.947-.926-2.217-1.418-1.27-.493-2.96-.42-1.656.07-2.998.702-1.34.63-2.28 1.638-.94 1.007-1.423 2.32-.483 1.312-.42 2.746.053 1.247.534 2.278.48 1.03 1.264 1.767.784.736 1.802 1.128 1.018.393 2.144.345.837-.036 1.527-.297.69-.26 1.174-.555.484-.295.747-.537.263-.242.28-.243.18-.196.453-.208.257-.01.452.16.196.172.207.428.01.256-.17.452-.033.035-.37.35-.337.313-.937.68-.6.37-1.433.68-.834.308-1.858.353-1.417.06-2.678-.415-1.26-.476-2.223-1.375-.962-.9-1.555-2.165-.593-1.266-.658-2.77-.074-1.706.518-3.254.592-1.55 1.704-2.735 1.11-1.185 2.662-1.91 1.55-.726 3.412-.806 2.407-.105 4.1.685 1.694.79 2.84 2.187 1.147 1.396 1.817 3.257.672 1.86 1.033 3.898.362 2.037.503 4.11.14 2.07.22 3.898l.03.735q.018.393.026.786.01.393.015.744.007.35.016.572l10.526-21.665q.14-.33.532-.348.29-.014.478.175.188.19.2.445.002.085-.077.627-.08.543-.186 1.437-.107.894-.227 2.07-.12 1.178-.207 2.533t-.127 2.82q-.04 1.463.023 2.915.105 2.44.442 4.317.338 1.874.974 3.147.637 1.273 1.613 1.898.975.625 2.358.565 1.247-.054 2.35-.64 1.104-.587 2.037-1.568.933-.98 1.715-2.28.782-1.3 1.393-2.79.612-1.488 1.065-3.08.453-1.594.736-3.163.283-1.57.4-3.046.114-1.476.06-2.706-.094-2.22-.68-4.067-.583-1.847-1.744-2.977-.178-.164-.19-.42-.01-.273.178-.47.188-.195.444-.206.29-.013.47.167.678.672 1.186 1.532.507.86.85 1.88.344 1.02.538 2.156.195 1.138.248 2.367.08 1.878-.182 4.104-.263 2.227-.867 4.485-.604 2.257-1.53 4.384-.926 2.127-2.18 3.78-1.255 1.654-2.818 2.688-1.564 1.034-3.425 1.114-1.758.076-2.988-.666-1.23-.743-2.02-2.205-.79-1.463-1.197-3.584-.408-2.12-.524-4.8-.048-1.11-.022-2.29.027-1.182.09-2.314.062-1.132.145-2.18.083-1.046.166-1.888zm32.684 13.318q-.063.14-.257.584-.195.445-.504 1.023-.308.578-.726 1.212-.417.633-.94 1.17-.526.535-1.143.895t-1.317.39q-.99.043-1.692-.56-.702-.602-1.05-1.545-.54.998-1.317 1.605-.778.607-1.58.64-.632.028-1.154-.18-.522-.208-.9-.61-.376-.404-.596-.96-.22-.554-.25-1.22-.057-1.332.352-2.367.408-1.035 1.08-1.75.67-.712 1.5-1.09.83-.378 1.616-.412.53-.02.98.105.45.126.772.283.324.157.5.295.178.137.195.154.198.213.208.453.012.256-.167.46-.18.205-.436.216-.273.01-.47-.168-.034-.033-.158-.122-.124-.09-.334-.182-.21-.094-.494-.158-.285-.065-.644-.05-.53.023-1.116.288-.587.265-1.06.79-.474.525-.774 1.3-.3.773-.256 1.815.014.323.097.653.082.33.264.596.183.265.48.423.298.158.725.14.306-.013.7-.236.39-.222.74-.665.348-.442.62-1.104.27-.662.35-1.555.025-.24.206-.41.18-.17.437-.182.24-.01.426.17.186.18.214.42.03.323.108.91.076.587.28 1.16.205.572.582.984.377.41 1.008.384.41-.018.802-.257.392-.238.76-.622t.698-.868q.33-.485.6-.976.27-.49.472-.944.203-.453.342-.784.078-.192.235-.3.16-.11.347-.12.29-.01.48.194.187.206.197.445.006.12-.04.24zm12.12-12.873q.01.273-.17.444-.18.17-.454.182l-8.656.372.008.188q.045 1.04-.058 2.226-.103 1.185-.317 2.366-.214 1.18-.5 2.305-.284 1.124-.594 2.078-.31.955-.62 1.66-.312.707-.57 1.06.255.776.59 1.437.338.66.744 1.15.406.486.862.757.456.27.968.248.597-.026 1.165-.555.567-.53 1.04-1.242.475-.713.828-1.438.355-.725.507-1.16.153-.416.58-.435.29-.012.478.185.19.197.2.436.004.12-.042.24-.046.123-.224.558-.18.436-.47 1.013-.292.576-.684 1.217-.39.64-.89 1.176-.498.535-1.08.902-.584.367-1.25.396-1.178.052-2.15-.676-.972-.728-1.69-2.082-.716-1.355-1.14-3.236-.423-1.88-.52-4.134-.024-.563-.04-1.324-.016-.76 0-1.608.014-.847.077-1.748.064-.9.198-1.762l-6.128.265q-.274.012-.468-.143-.195-.154-.207-.427-.012-.273.17-.443.18-.17.453-.182l6.42-.277q.144-.622.352-1.145.21-.522.49-.91.284-.39.642-.618.358-.23.802-.248.427-.02.752.18.325.2.563.567.24.365.39.872.15.506.244 1.118l8.725-.376q.272-.012.467.142t.207.427zm-12.398 11.192q.463-1.15.825-2.473.363-1.325.605-2.67.24-1.344.348-2.63.107-1.29.06-2.365l-2.014.087q-.195 1.07-.272 2.638-.078 1.568.018 3.805.054 1.246.16 2.09.104.84.27 1.518zm1.037-12.84q-.154.007-.43.352-.276.346-.53 1.23l1.64-.072q-.116-.713-.296-1.116-.18-.404-.384-.395zm-.71 14.074v-.018.017zm8.762-1.49q-.09.277-.22.625t-.303.73q-.14.298-.296.467-.156.17-.412.18-.29.013-.468-.16-.18-.17-.19-.41-.003-.085.012-.145.014-.06.076-.2.408-.873.593-1.523.186-.65.293-1.355-.137-.39-.2-.66t-.075-.56q-.025-.564.2-.925.223-.36.65-.38.393-.015.638.316.245.333.266.828.01.273-.028.548-.04.276-.107.69.434.955.86 1.69.425.734.76 1.344.333.61.553 1.148.22.538.243 1.084.032.717-.23 1.38-.262.66-.91 1.133.087.013.173.01l.17-.008q.974-.042 1.774-.52.8-.48 1.427-1.218t1.102-1.622q.475-.884.814-1.754.154-.4.46-.413.29-.012.462.186.17.198.182.437.005.136-.04.258-.17.47-.442 1.072-.273.602-.665 1.243-.39.642-.912 1.263-.52.62-1.174 1.12-.654.498-1.444.815-.79.316-1.746.357-1.144.05-2.143-.31-1-.358-1.654-1.254-.11-.15-.116-.32-.01-.256.176-.46.188-.205.444-.216.274-.012.47.167.018.034.124.106.107.073.256.16.15.088.348.148.2.06.404.052.41-.018.685-.2.274-.184.434-.44.16-.254.225-.54.064-.284.056-.49-.02-.425-.174-.846-.155-.42-.387-.84-.232-.417-.5-.858-.266-.442-.492-.928zm15.046 3.798q-.426.018-.753-.036-.234.523-.574.974-.34.45-.795.796-.456.344-1.028.557-.573.212-1.256.242-.802.034-1.48-.22-.678-.252-1.195-.734-.518-.482-.822-1.18-.304-.696-.34-1.55-.048-1.092.31-1.92.358-.828.847-1.388.49-.56.99-.847.5-.287.757-.298.29-.012.442.135.15.147.162.404.013.29-.16.443-.173.153-.44.3-.268.15-.564.41-.297.26-.545.648-.25.387-.397.907-.15.52-.122 1.15.024.564.216 1.044.192.48.53.815.34.337.793.514t1 .154q.972-.042 1.593-.522.62-.48.932-1.195-1.03-.485-1.72-1.43-.692-.945-.744-2.158-.042-.973.4-1.608.444-.635 1.212-.668.46-.02.88.185t.757.67q.336.464.556 1.207.22.743.265 1.785.024.546-.087 1.15.104.012.207.008l.222-.01q.58-.025 1.034-.182.456-.156.82-.445.363-.29.644-.73.28-.44.53-1.014.046-.106.212-.207.167-.102.338-.11.222-.01.426.162.204.17.216.46.006.138-.055.303-.06.165-.124.305-.267.524-.63 1.01-.365.487-.87.86-.506.372-1.146.604-.64.233-1.443.25zm-3.104-4.177q.014.326.114.68.1.355.296.698.194.342.472.646.28.305.647.51.035-.36.02-.7-.02-.462-.108-.937-.09-.475-.234-.87-.146-.397-.344-.636-.2-.24-.456-.227-.102.004-.266.165-.165.16-.142.673zm10.086 4.22q.25-.576.578-1.266.33-.69.71-1.4.38-.71.802-1.41.423-.704.892-1.34.47-.618.962-.905.492-.287.936-.306.888-.04 1.343.592.454.63.496 1.586.01.222-.002.54-.012.316-.022.676l-.02.728q-.01.368.004.692.018.41.077.784.06.374.19.65.132.277.36.43.23.152.59.137.648-.03 1.24-.56.593-.53 1.084-1.244.492-.714.845-1.447.354-.735.522-1.187.078-.192.235-.3.158-.11.346-.12.29-.01.48.194.187.206.198.445.005.12-.04.24-.064.14-.25.577-.187.434-.496 1.004-.31.57-.726 1.21-.417.644-.933 1.18-.514.534-1.123.903-.608.368-1.29.398-.77.033-1.26-.245-.49-.28-.786-.753-.293-.475-.412-1.06-.12-.585-.145-1.183-.01-.256 0-.58.012-.327.04-.687.026-.36.037-.72.01-.36-.004-.684-.024-.547-.203-.736-.18-.19-.316-.183-.273.012-.61.343-.336.33-.698.86-.363.528-.737 1.186-.373.658-.696 1.304-.323.647-.597 1.232-.274.584-.428.967-.31.732-.642.994-.33.264-.69.28-.494.02-.806-.266-.312-.285-.335-.832-.006-.12.013-.47l.05-.84q.03-.49.056-1.056l.053-1.122q.028-.557.04-1.037.015-.48 0-.804-.018-.427-.07-.818-.05-.39-.156-.472-.152.058-.52.664-.366.606-.917 2.118-.077.19-.243.3-.167.11-.354.12-.29.01-.47-.178-.18-.19-.19-.445-.005-.12.04-.258.69-1.86 1.327-2.75.637-.893 1.303-.922.392-.017.674.168.282.185.458.502.176.317.27.707.094.388.11.798.015.307 0 .958-.015.65-.05 1.396-.037.746-.065 1.483-.028.736-.058 1.234zM32.714 18.562q-.433 1.455-.695 3.323-.262 1.867-.167 4.087.068 1.57.24 3.17.17 1.6.32 3.442.4-.24.707-.252.24-.01.434.143.195.154.206.41.016.376-.318.57-.334.194-.954.495l.064 1.486q.168 3.893-.144 7.165-.312 3.273-1.218 5.664-.906 2.39-2.497 3.777-1.59 1.387-3.964 1.49-1.008.043-1.998-.3-.99-.34-1.784-1.094-.793-.753-1.313-1.902-.52-1.15-.588-2.72-.075-1.725.498-3.314.573-1.59 1.564-3.01.99-1.42 2.288-2.648 1.298-1.227 2.666-2.244 1.367-1.017 2.702-1.793t2.39-1.284q-.11-1.756-.305-3.518-.195-1.762-.275-3.623-.075-1.742.07-3.365.142-1.623.458-3.04-.65.405-1.43.764-.78.358-1.638.685-.858.328-1.76.64-.902.313-1.778.608-1.332.45-2.413.968-1.08.518-1.84 1.166-.76.65-1.16 1.453-.402.803-.358 1.828.052 1.195.55 2.012.496.816 1.26 1.305.766.49 1.707.68.94.19 1.862.15.273-.012.46.168.188.18.2.453.012.273-.177.46-.19.19-.428.2-1.16.05-2.328-.234-1.166-.283-2.118-.935-.952-.652-1.578-1.685-.626-1.034-.688-2.468-.054-1.246.407-2.25.462-1.003 1.333-1.81.872-.808 2.128-1.444 1.255-.635 2.79-1.146 1.113-.373 2.207-.78 1.094-.406 2.076-.834.982-.427 1.8-.88.82-.456 1.397-.942.6-1.942 1.34-3.01.742-1.066 1.46-1.097.152-.005.334.047.183.052.35.173.17.12.28.338.113.218.127.542.032.75-.712 1.74t-2.05 2.023zM31.232 34.57q-.972.47-2.172 1.188-1.2.72-2.435 1.662-1.233.942-2.39 2.07-1.158 1.127-2.052 2.406-.894 1.28-1.407 2.678-.513 1.4-.45 2.868.054 1.246.454 2.17.4.923 1.032 1.53.633.604 1.424.887.79.28 1.61.246 1.417-.06 2.464-.765 1.048-.703 1.79-1.907.745-1.204 1.204-2.84.46-1.636.7-3.588.242-1.952.284-4.135.043-2.183-.056-4.47zM44.535 38.8q-.427.02-.754-.036-.233.524-.573.974-.34.45-.795.796-.456.345-1.028.557-.573.213-1.256.243-.802.034-1.48-.22-.678-.252-1.195-.734t-.82-1.18q-.305-.696-.34-1.55-.05-1.092.31-1.92.357-.828.846-1.388.488-.56.99-.847.5-.287.756-.298.29-.013.442.134.15.148.162.404.013.29-.16.443-.173.154-.44.302-.268.15-.564.41-.297.26-.545.647-.248.386-.396.906-.15.52-.122 1.15.024.565.216 1.044.192.48.53.815.34.336.793.513.454.178 1 .154.973-.042 1.594-.522.62-.48.932-1.195-1.03-.486-1.72-1.43-.692-.946-.744-2.158-.042-.974.4-1.61.444-.633 1.212-.667.46-.02.88.185.42.204.757.668.337.465.557 1.208.22.744.265 1.786.024.546-.087 1.15.103.012.206.008l.223-.01q.58-.025 1.035-.18.456-.158.82-.447.363-.29.644-.73.28-.44.53-1.014.046-.105.212-.206.167-.1.338-.11.222-.008.426.162t.216.46q.006.137-.055.302-.062.165-.125.305-.268.525-.632 1.01-.364.487-.87.86-.505.372-1.145.605-.64.233-1.443.25zm-3.105-4.177q.014.325.114.68.1.355.296.697.194.342.472.647.28.303.647.51.034-.36.02-.703-.02-.46-.11-.936-.088-.474-.233-.87-.146-.395-.344-.635-.2-.24-.455-.228-.102.004-.266.165-.165.16-.142.673zm7.596 3.607l.052.802q.248-.593.577-1.282.33-.69.71-1.417.378-.726.81-1.446.43-.72.9-1.357.468-.62.96-.905.492-.286.936-.306.445-.02.786.146.34.165.567.463.227.3.356.704.127.405.148.883.017.393-.032 1.054-.048.66-.017 1.38.017.408.077.808.06.4.184.71.126.31.356.498.23.187.59.17.41-.016.81-.265.4-.247.775-.648.377-.4.715-.886.338-.485.608-.967.27-.483.474-.928.203-.445.327-.74.154-.4.58-.42.29-.012.47.185.18.198.19.437.006.137-.04.258-.062.14-.24.575-.178.435-.487 1.013-.308.578-.726 1.212-.416.634-.932 1.178-.515.544-1.124.903-.61.36-1.292.39-.785.034-1.277-.28-.493-.31-.78-.812-.286-.5-.408-1.127-.12-.628-.146-1.226-.013-.307-.002-.658.01-.352.03-.695.02-.343.032-.643.013-.3.004-.505-.023-.53-.176-.71-.154-.182-.34-.174-.275.012-.61.343-.337.33-.7.86-.36.528-.718 1.185-.357.658-.688 1.305-.33.647-.597 1.232-.265.584-.437.968-.328.733-.684.996-.356.265-.647.277-.53.023-.83-.383-.298-.406-.324-1.004l-.047-1.076q-.14-3.227-.257-6.155-.118-2.93-.15-5.45-.032-2.523.06-4.57.09-2.05.387-3.508.296-1.458.817-2.267.52-.81 1.358-.846.717-.03 1.23.34.51.37.847 1.032.336.66.51 1.552.176.89.22 1.88.086 2.015-.198 3.97-.283 1.953-.818 3.823-.535 1.87-1.28 3.656-.743 1.786-1.577 3.48l.032.735.036.854.034.802.026.598zm-.22-5.5q.65-1.6 1.174-3.12.525-1.52.88-3.023.353-1.504.526-3.042.173-1.54.102-3.195-.012-.273-.063-.87-.052-.596-.206-1.205-.156-.61-.44-1.06-.285-.45-.763-.428-.376.016-.627.532-.252.515-.42 1.386-.167.87-.254 2.02t-.118 2.435q-.03 1.284-.014 2.635.015 1.35.053 2.624.038 1.272.086 2.382l.083 1.93zm15.84 5.545q.25-.576.578-1.266.33-.688.71-1.398.38-.71.802-1.41.423-.704.892-1.34.47-.62.962-.905.492-.287.936-.306.888-.037 1.342.593.455.63.497 1.587.01.222-.003.54-.012.316-.022.676l-.02.727q-.01.37.004.693.018.41.077.784.06.373.19.65.133.276.362.43.23.152.588.136.648-.028 1.24-.558.594-.53 1.085-1.244.49-.714.844-1.448.353-.733.52-1.185.078-.19.236-.3.158-.11.346-.118.29-.012.48.193.187.206.197.445.005.12-.042.24-.062.14-.248.576-.187.436-.496 1.005-.31.57-.726 1.213-.417.642-.933 1.178-.515.536-1.124.905-.607.368-1.29.397-.77.034-1.26-.245-.49-.278-.785-.753-.294-.474-.413-1.06-.12-.584-.145-1.182-.01-.256 0-.582.012-.325.04-.686.026-.36.036-.72.01-.36-.003-.684-.024-.546-.203-.735-.18-.19-.316-.183-.272.012-.61.343-.335.33-.697.86-.362.528-.736 1.186-.373.658-.696 1.305-.322.647-.596 1.232-.274.585-.43.968-.31.732-.64.994-.33.26-.69.277-.494.02-.806-.265-.312-.286-.335-.832-.006-.12.013-.47.02-.353.05-.84.03-.49.057-1.056l.054-1.123q.027-.556.04-1.035.014-.48 0-.804-.018-.426-.07-.817-.05-.392-.156-.473-.15.058-.518.664-.367.606-.918 2.118-.077.192-.243.302-.166.11-.354.118-.29.012-.47-.177-.178-.19-.19-.445-.005-.12.04-.258.69-1.86 1.328-2.752.637-.89 1.303-.92.392-.017.674.168.283.184.46.502.175.317.27.707.093.39.11.8.014.306 0 .957-.016.65-.052 1.396-.036.746-.064 1.482-.03.737-.058 1.235zm15.554-.672q.25-.575.578-1.265.33-.69.71-1.4.38-.708.803-1.41.424-.703.892-1.34.47-.618.962-.904.492-.287.936-.306.888-.038 1.343.592.455.63.496 1.587.008.22-.004.538-.012.317-.022.676l-.02.728q-.01.368.005.693.016.41.075.783.06.374.19.65.132.277.36.43.23.153.59.137.648-.028 1.24-.558.594-.53 1.085-1.244.49-.714.844-1.448.353-.734.522-1.186.077-.192.235-.302.158-.11.346-.117.29-.012.48.194.187.206.198.445.005.118-.04.24-.064.14-.25.575-.186.436-.495 1.005-.31.57-.728 1.212-.417.642-.932 1.178-.516.535-1.124.903-.61.37-1.292.398-.768.034-1.26-.244-.49-.278-.784-.753-.295-.475-.414-1.06-.12-.585-.145-1.182-.01-.255.002-.58.01-.326.038-.687.028-.36.038-.72.01-.36-.004-.684-.024-.547-.203-.736-.178-.19-.315-.183-.273.013-.61.344-.336.33-.698.86-.362.528-.735 1.186-.374.657-.697 1.304-.322.647-.597 1.232-.274.585-.428.968-.31.732-.642.994-.33.262-.69.278-.494.02-.806-.265-.31-.285-.335-.83-.005-.12.014-.472l.05-.84q.03-.49.057-1.055l.054-1.123q.03-.557.042-1.036.014-.48 0-.804-.02-.427-.07-.818-.05-.392-.157-.473-.15.057-.52.663-.366.606-.917 2.118-.077.193-.243.302-.166.11-.354.118-.29.013-.47-.176-.178-.19-.19-.445-.004-.12.04-.26.69-1.86 1.328-2.75.637-.892 1.303-.92.394-.018.675.167.282.184.458.502.176.316.27.705.094.39.112.8.013.307-.002.958-.014.65-.05 1.396-.037.745-.065 1.48-.028.738-.058 1.235zm18.192.995q.572-.624 1.16-1.274.587-.65 1.138-1.357.552-.71 1.023-1.474.472-.764.828-1.618.08-.19.228-.292.15-.1.338-.108.29-.013.478.184t.2.453q.005.137-.04.26-.482 1.13-1.125 2.083-.645.95-1.36 1.812-.716.86-1.45 1.67-.735.81-1.4 1.626-.02 1.18.1 2.365.12 1.184.178 2.516.047 1.093.025 2.19-.02 1.094-.13 2.1-.112 1.005-.34 1.887-.226.883-.608 1.54-.382.658-.913 1.05-.53.39-1.264.42-1.213.054-1.898-.755-.685-.808-.75-2.31-.035-.82.104-1.767.14-.946.42-1.96.28-1.012.69-2.056.408-1.044.895-2.04.487-.996 1.046-1.9.56-.906 1.144-1.65-.002-.82.003-1.702.005-.88.024-1.634-.41.804-1.047 1.31-.637.507-1.422.54-1.298.057-2.07-.782-.77-.84-.837-2.36-.047-1.11.127-2.03.174-.924.393-1.592.22-.668.41-1.027.19-.36.19-.342.175-.298.517-.313.29-.012.478.176.187.19.2.445.007.188-.09.346.017-.02-.15.288-.166.306-.355.88-.19.57-.334 1.365-.146.793-.105 1.732.04.94.406 1.453.364.515 1.132.482.974-.042 1.697-1.52.723-1.475 1.15-4.248.025-.223.19-.376.164-.152.403-.163.273-.01.47.168.195.18.207.454.002.05-.042.61-.044.557-.1 1.483-.053.926-.103 2.15-.05 1.227-.058 2.613zm-1.21 3.678q-.72 1.143-1.307 2.4-.588 1.257-.996 2.49-.41 1.23-.618 2.352-.208 1.12-.17 1.992.037.888.35 1.38.31.49.943.463.564-.025.975-.598.412-.574.666-1.61.255-1.04.345-2.505.092-1.467.014-3.276-.032-.735-.09-1.485-.058-.75-.112-1.602z" fill-rule="evenodd" fill="#2152F3"/></svg>